<?xml version="1.0" encoding="utf-8"?>
<svg xmlns="http://www.w3.org/2000/svg" viewBox="107.498 31.9 72.298 76.169" width="72.298px" height="76.169px"><g id="object-0" transform="matrix(1, 0, 0, 1, 0, -1.4210854715202004e-14)"><rect x="107.498" y="31.9" width="72.298" height="76.169" style="fill: rgb(249, 115, 22);" rx="5.476" ry="5.476"/><path d="M 126.228 80.821 L 118.026 80.743 L 134.744 98.169 L 150.379 80.726 L 142.249 80.821 L 142.249 70.623 C 142.249 67.857 143.194 61.393 150.692 61.176 C 155.923 61.023 159.21 65.431 159.21 68.197 L 159.526 98.337 L 174.284 98.206 L 174.284 68.469 C 174.284 64.602 173.337 60.037 171.442 56.823 C 169.549 53.611 167.011 51.055 163.83 49.156 C 160.648 47.258 156.703 44.916 150.128 44.916 C 143.145 44.916 139.906 47.258 136.708 49.156 C 133.51 51.055 130.963 53.611 129.068 56.823 C 127.173 60.037 126.228 64.602 126.228 68.469 L 126.228 80.821 Z" style="text-wrap-mode: nowrap; fill: rgb(239, 239, 239); transform-box: fill-box; transform-origin: 50% 50%;" transform="matrix(-1, 0, 0, -1, 1.289032, 0.013988)"/></g></svg>